<svg version="1.1" id="Layer_1" xmlns="http://www.w3.org/2000/svg" xmlns:xlink="http://www.w3.org/1999/xlink" x="0px" y="0px"
	 width="100%" viewBox="0 0 656 626" enable-background="new 0 0 656 626" xml:space="preserve">
<path fill="#020202" opacity="1.000000" stroke="none" 
	d="
M377.000000,627.000000 
	C251.333359,627.000000 126.166710,627.000000 1.000050,627.000000 
	C1.000034,418.333405 1.000034,209.666779 1.000017,1.000134 
	C219.666565,1.000090 438.333130,1.000090 656.999756,1.000045 
	C656.999878,209.666519 656.999878,418.333038 656.999939,626.999756 
	C563.833313,627.000000 470.666656,627.000000 377.000000,627.000000 
M515.523193,371.748230 
	C515.523193,371.748230 515.347595,371.305786 515.698242,371.202209 
	C515.698242,371.202209 516.009155,371.009796 516.769226,371.193573 
	C522.495911,369.179932 528.111145,366.702301 533.982666,365.291565 
	C539.174500,364.044128 544.651917,363.985107 550.567627,363.438812 
	C550.944153,363.458344 551.320679,363.477875 552.055664,364.089844 
	C558.281616,366.341003 564.698364,368.179291 570.686340,370.945526 
	C578.561829,374.583740 578.470642,374.867706 578.470947,365.867340 
	C578.473938,290.084717 578.481262,214.302094 578.451416,138.519485 
	C578.450073,135.102875 578.941956,132.452728 581.836853,129.772171 
	C606.846802,106.613831 606.090637,68.338638 580.210876,46.165016 
	C576.682434,43.141907 572.100037,41.348907 567.421753,38.616268 
	C566.368835,38.297165 565.315857,37.978058 563.744263,37.374878 
	C563.167664,37.244411 562.591064,37.113945 561.925842,36.344315 
	C560.280640,35.976627 558.635498,35.608936 556.274475,35.127235 
	C555.555359,35.036476 554.836243,34.945717 553.924194,34.189697 
	C552.613220,33.800774 551.302246,33.411846 549.225891,32.803154 
	C542.420654,33.726654 535.336487,33.774906 528.891296,35.828381 
	C522.865540,37.748188 517.517517,41.795055 511.331421,45.249615 
	C510.004150,46.345943 508.676849,47.442276 506.690125,48.334892 
	C506.275665,48.997406 505.861206,49.659924 504.987671,50.816570 
	C501.866791,55.530254 498.745941,60.243938 495.010010,64.997620 
	C494.856567,65.534554 494.703125,66.071487 494.167389,67.230453 
	C493.758392,68.617050 493.349396,70.003654 492.299377,71.563484 
	C492.183228,72.366280 492.067078,73.169067 491.749451,74.343460 
	C491.749451,74.343460 491.650665,74.754448 491.030548,75.035370 
	C490.594482,77.693680 490.158386,80.351982 489.513916,83.778831 
	C489.567444,87.181992 489.620972,90.585159 489.318390,94.586334 
	C490.073975,97.147789 490.829590,99.709236 491.714813,102.964874 
	C491.908752,103.643166 492.102661,104.321465 491.728546,105.266190 
	C492.861572,107.465553 493.994629,109.664917 495.487183,112.453110 
	C496.822662,114.859138 498.158112,117.265167 499.274231,120.309280 
	C499.873871,120.847931 500.473511,121.386581 501.481842,122.450142 
	C503.266296,124.421112 504.754181,126.834618 506.897064,128.270859 
	C511.348145,131.254181 512.102539,135.194962 512.083618,140.225357 
	C511.908417,186.840805 511.954773,233.457153 511.969574,280.073242 
	C511.979126,310.038818 512.043579,340.004395 511.713501,370.600159 
	C511.793396,371.073334 511.873291,371.546478 512.002136,372.630829 
	C513.077393,372.461060 514.152588,372.291290 515.523193,371.748230 
M295.250061,497.273132 
	C308.782776,505.873016 323.690063,508.366913 338.833984,504.169647 
	C360.450165,498.178528 374.018951,483.826965 378.533173,461.357269 
	C384.287964,432.712738 365.614166,403.925354 336.729584,397.919586 
	C332.579346,397.056641 330.342682,395.060822 328.375122,391.835297 
	C300.275726,345.770538 272.144012,299.725494 244.031158,253.668945 
	C215.570755,207.043060 187.083908,160.433121 158.787689,113.707771 
	C157.425705,111.458755 156.811935,107.884338 157.519943,105.403862 
	C160.723175,94.181313 160.683090,83.194969 157.429871,71.993904 
	C151.269028,50.781643 128.557388,32.815674 106.460762,33.144756 
	C99.359894,33.250511 91.996132,35.294800 85.277267,37.838135 
	C63.912838,45.925350 50.142612,67.479256 50.977985,90.296700 
	C51.848026,114.060944 66.105026,133.748230 88.965881,140.276230 
	C97.749512,142.784424 103.670807,146.791687 107.053017,154.996643 
	C107.486771,156.048874 108.342796,156.920410 108.947166,157.909897 
	C138.289200,205.948547 167.614944,253.997162 196.964661,302.031097 
	C222.242828,343.401550 247.575394,384.738861 272.739838,426.178314 
	C273.757538,427.854218 274.004181,430.643799 273.419800,432.549500 
	C265.631134,457.949432 273.721313,482.684357 295.250061,497.273132 
M134.499969,505.802551 
	C141.498962,505.799530 148.501968,505.655273 155.495178,505.855072 
	C158.818893,505.950043 159.970398,504.655121 159.922012,501.490082 
	C159.822693,494.992462 159.958344,488.491547 159.891434,481.993073 
	C159.662292,459.734802 162.469193,466.279572 144.448029,455.128204 
	C140.094086,452.433960 138.263504,449.830017 138.274658,444.612579 
	C138.426453,373.621674 138.366913,302.630219 138.228333,231.639160 
	C138.222748,228.781281 137.566452,225.536728 136.119446,223.130051 
	C122.772263,200.930740 109.192268,178.871307 95.640465,156.795456 
	C94.967239,155.698776 94.110733,154.321884 93.030502,153.932190 
	C86.554199,151.595779 79.987328,149.510406 72.787880,147.120850 
	C72.787880,150.045135 72.787888,152.662216 72.787880,155.279282 
	C72.787689,247.768188 72.797157,340.257080 72.765480,432.746002 
	C72.763382,438.886993 74.409027,446.144867 71.726212,450.853943 
	C69.054413,455.543640 62.023750,457.915253 56.657280,460.851868 
	C52.439323,463.159973 50.867641,466.406158 50.922382,471.004059 
	C51.037437,480.668182 51.189827,490.342438 50.861931,499.996765 
	C50.698486,504.809082 52.579018,505.901825 57.009647,505.874115 
	C82.505569,505.714508 108.003029,505.799988 134.499969,505.802551 
M403.192322,256.688812 
	C379.916626,294.787018 356.642212,332.886017 333.363922,370.982635 
	C329.826141,376.772461 333.002594,384.817017 339.612579,386.594788 
	C351.889679,389.896790 362.852600,395.580688 371.786804,404.717560 
	C375.227570,408.236389 378.164001,412.248352 381.662903,416.433563 
	C382.917084,414.765808 384.108582,413.422058 385.034088,411.914948 
	C402.923492,382.783813 420.797058,353.642914 438.642365,324.484741 
	C458.577454,291.912048 478.526947,259.347900 498.303680,226.679230 
	C499.748932,224.291840 500.450714,221.091415 500.471039,218.261597 
	C500.640076,194.771545 499.734894,171.238419 500.898438,147.804932 
	C501.535522,134.973694 491.105927,130.518753 486.481659,120.797287 
	C458.376007,166.686035 430.996216,211.389648 403.192322,256.688812 
M590.630859,579.911865 
	C594.073669,580.475586 597.530701,580.964661 600.956055,581.619446 
	C606.803528,582.737305 610.432495,580.710571 611.782959,574.959412 
	C612.997803,569.785767 613.748596,564.504150 614.746338,559.278198 
	C617.456787,545.080872 620.203064,530.890381 622.909546,516.692322 
	C625.553650,502.821259 628.168945,488.944702 630.791077,475.069458 
	C631.661377,470.464325 630.360413,466.877686 626.846436,463.476715 
	C615.020874,452.031372 603.563354,440.206604 591.821899,428.672668 
	C589.029236,425.929321 587.664001,423.216248 587.842346,419.103241 
	C589.136658,389.253326 559.963257,368.476044 532.390076,376.391876 
	C506.681274,383.772400 491.795624,414.750977 506.742004,440.117645 
	C516.421875,456.546143 531.278992,463.298035 550.060730,461.542023 
	C553.549316,461.215851 556.038330,462.044769 558.445068,464.608185 
	C563.571960,470.068939 568.879395,475.372681 574.325256,480.515869 
	C576.956055,483.000427 577.997681,485.647095 577.979980,489.285095 
	C577.848755,516.263245 577.973999,543.242676 577.855408,570.221008 
	C577.834290,575.030029 579.777710,577.760071 584.394409,578.716431 
	C586.186890,579.087830 587.981079,579.451111 590.630859,579.911865 
M38.901020,524.500427 
	C33.612682,527.618774 28.407618,530.891602 23.007139,533.801819 
	C19.316307,535.790771 17.902012,538.603333 17.945219,542.686157 
	C18.065073,554.011841 18.218779,565.346924 17.871935,576.663269 
	C17.725548,581.439392 19.030914,582.859680 23.922407,582.843262 
	C75.059875,582.671326 126.198158,582.741211 177.336212,582.743103 
	C181.333969,582.743225 185.332306,582.691711 189.329254,582.746826 
	C191.909637,582.782410 193.304749,582.028320 193.273209,579.036133 
	C193.143311,566.710999 193.491776,554.371704 192.970749,542.066956 
	C192.854797,539.328369 190.512711,535.901367 188.172134,534.195801 
	C182.566513,530.111145 176.203247,527.084229 170.424393,523.214355 
	C164.399567,519.179810 158.097260,517.668152 150.785767,517.749512 
	C121.139359,518.079346 91.483788,518.131775 61.839188,517.728455 
	C53.491310,517.614929 46.072517,518.863892 38.901020,524.500427 
M505.421112,457.082886 
	C500.457275,449.976166 495.493408,442.869476 490.509216,435.733673 
	C480.311066,445.835449 469.817047,455.802612 459.962585,466.366364 
	C458.079498,468.384979 457.820007,472.909393 458.349396,476.015625 
	C460.637421,489.441376 463.531891,502.762878 466.139740,516.135193 
	C469.957214,535.709778 473.672760,555.304382 477.531464,574.870789 
	C478.667175,580.629578 481.897400,582.681091 487.552185,581.738525 
	C491.814636,581.028015 496.081329,580.339355 500.355103,579.700867 
	C509.000580,578.409241 510.702118,576.502991 510.714508,567.622986 
	C510.745453,545.469666 511.336517,523.292969 510.482666,501.172729 
	C510.039093,489.681244 512.006409,480.281067 521.761597,473.469574 
	C522.033203,473.279907 522.297729,473.065125 522.518372,472.819672 
	C524.342285,470.790131 523.745361,469.601898 521.488831,468.181702 
	C516.181580,464.841583 511.095154,461.150482 505.421112,457.082886 
z"/>
<path fill="#E3E3E3" opacity="1.000000" stroke="none" 
	d="
M294.958984,497.057190 
	C273.721313,482.684357 265.631134,457.949432 273.419800,432.549500 
	C274.004181,430.643799 273.757538,427.854218 272.739838,426.178314 
	C247.575394,384.738861 222.242828,343.401550 196.964661,302.031097 
	C167.614944,253.997162 138.289200,205.948547 108.947166,157.909897 
	C108.342796,156.920410 107.486771,156.048874 107.053017,154.996643 
	C103.670807,146.791687 97.749512,142.784424 88.965881,140.276230 
	C66.105026,133.748230 51.848026,114.060944 50.977985,90.296700 
	C50.142612,67.479256 63.912838,45.925350 85.277267,37.838135 
	C91.996132,35.294800 99.359894,33.250511 106.460762,33.144756 
	C128.557388,32.815674 151.269028,50.781643 157.429871,71.993904 
	C160.683090,83.194969 160.723175,94.181313 157.519943,105.403862 
	C156.811935,107.884338 157.425705,111.458755 158.787689,113.707771 
	C187.083908,160.433121 215.570755,207.043060 244.031158,253.668945 
	C272.144012,299.725494 300.275726,345.770538 328.375122,391.835297 
	C330.342682,395.060822 332.579346,397.056641 336.729584,397.919586 
	C365.614166,403.925354 384.287964,432.712738 378.533173,461.357269 
	C374.018951,483.826965 360.450165,498.178528 338.833984,504.169647 
	C323.690063,508.366913 308.782776,505.873016 294.958984,497.057190 
z"/>
<path fill="#E2E2E2" opacity="1.000000" stroke="none" 
	d="
M133.999969,505.802490 
	C108.003029,505.799988 82.505569,505.714508 57.009647,505.874115 
	C52.579018,505.901825 50.698486,504.809082 50.861931,499.996765 
	C51.189827,490.342438 51.037437,480.668182 50.922382,471.004059 
	C50.867641,466.406158 52.439323,463.159973 56.657280,460.851868 
	C62.023750,457.915253 69.054413,455.543640 71.726212,450.853943 
	C74.409027,446.144867 72.763382,438.886993 72.765480,432.746002 
	C72.797157,340.257080 72.787689,247.768188 72.787880,155.279282 
	C72.787888,152.662216 72.787880,150.045135 72.787880,147.120850 
	C79.987328,149.510406 86.554199,151.595779 93.030502,153.932190 
	C94.110733,154.321884 94.967239,155.698776 95.640465,156.795456 
	C109.192268,178.871307 122.772263,200.930740 136.119446,223.130051 
	C137.566452,225.536728 138.222748,228.781281 138.228333,231.639160 
	C138.366913,302.630219 138.426453,373.621674 138.274658,444.612579 
	C138.263504,449.830017 140.094086,452.433960 144.448029,455.128204 
	C162.469193,466.279572 159.662292,459.734802 159.891434,481.993073 
	C159.958344,488.491547 159.822693,494.992462 159.922012,501.490082 
	C159.970398,504.655121 158.818893,505.950043 155.495178,505.855072 
	C148.501968,505.655273 141.498962,505.799530 133.999969,505.802490 
z"/>
<path fill="#E5E5E5" opacity="1.000000" stroke="none" 
	d="
M562.014465,36.983482 
	C562.591064,37.113945 563.167664,37.244411 563.984985,37.880730 
	C565.474243,38.938828 566.722778,39.491081 568.260498,40.214493 
	C583.265320,48.499012 593.041870,60.220280 596.698059,77.021080 
	C601.054932,97.041801 595.285034,113.830757 581.143799,127.875099 
	C577.476868,131.516937 575.936462,134.913879 575.945129,139.970810 
	C576.073303,214.954422 576.034546,289.938324 576.020264,364.922150 
	C576.019897,366.938324 575.851562,368.954468 575.734497,371.575409 
	C573.376099,370.230347 571.986572,369.315552 570.497742,368.610321 
	C564.540955,365.788300 558.715637,362.431946 551.697205,363.497375 
	C551.320679,363.477875 550.944153,363.458344 549.993408,363.139893 
	C543.806885,362.973785 537.954773,362.155975 532.646851,363.495239 
	C526.838684,364.960785 521.533569,368.419678 516.009155,371.009796 
	C516.009155,371.009796 515.698242,371.202209 515.193054,371.110565 
	C513.819702,370.669281 512.951599,370.319611 512.083435,369.969971 
	C512.043579,340.004395 511.979126,310.038818 511.969574,280.073242 
	C511.954773,233.457153 511.908417,186.840805 512.083618,140.225357 
	C512.102539,135.194962 511.348145,131.254181 506.897064,128.270859 
	C504.754181,126.834618 503.266296,124.421112 501.358276,121.867981 
	C500.654327,120.747620 500.073944,120.209412 499.493591,119.671196 
	C498.158112,117.265167 496.822662,114.859138 495.390137,111.799156 
	C494.294250,109.096725 493.295410,107.048241 492.296570,104.999763 
	C492.102661,104.321465 491.908752,103.643166 491.833008,102.239212 
	C491.660522,99.012390 491.369812,96.511223 491.294128,93.678757 
	C491.387421,89.891930 491.265656,86.436394 491.210327,82.567604 
	C491.401398,79.687714 491.526031,77.221085 491.650665,74.754448 
	C491.650665,74.754448 491.749451,74.343460 492.213684,74.091980 
	C492.765442,73.023743 492.852936,72.207001 492.940430,71.390259 
	C493.349396,70.003654 493.758392,68.617050 494.651703,67.032608 
	C495.299011,66.209045 495.462036,65.583336 495.625061,64.957626 
	C498.745941,60.243938 501.866791,55.530254 505.521973,50.607033 
	C506.487396,49.777866 506.918488,49.158234 507.349579,48.538605 
	C508.676849,47.442276 510.004150,46.345943 511.973511,45.149132 
	C513.650085,44.568012 514.701050,44.119617 515.716614,43.601780 
	C526.462646,38.122040 537.401917,33.349991 550.207886,34.352448 
	C551.726379,34.651939 552.921753,34.753448 554.117126,34.854961 
	C554.836243,34.945717 555.555359,35.036476 556.622498,35.420513 
	C557.183105,35.963902 557.450073,36.122574 557.863770,36.431767 
	C558.645569,36.845772 559.335083,37.017818 560.366577,37.257195 
	C561.143921,37.210846 561.579163,37.097164 562.014465,36.983482 
z"/>
<path fill="#E1E1E1" opacity="1.000000" stroke="none" 
	d="
M403.404358,256.391052 
	C430.996216,211.389648 458.376007,166.686035 486.481659,120.797287 
	C491.105927,130.518753 501.535522,134.973694 500.898438,147.804932 
	C499.734894,171.238419 500.640076,194.771545 500.471039,218.261597 
	C500.450714,221.091415 499.748932,224.291840 498.303680,226.679230 
	C478.526947,259.347900 458.577454,291.912048 438.642365,324.484741 
	C420.797058,353.642914 402.923492,382.783813 385.034088,411.914948 
	C384.108582,413.422058 382.917084,414.765808 381.662903,416.433563 
	C378.164001,412.248352 375.227570,408.236389 371.786804,404.717560 
	C362.852600,395.580688 351.889679,389.896790 339.612579,386.594788 
	C333.002594,384.817017 329.826141,376.772461 333.363922,370.982635 
	C356.642212,332.886017 379.916626,294.787018 403.404358,256.391052 
z"/>
<path fill="#E1E1E1" opacity="1.000000" stroke="none" 
	d="
M590.202637,579.864990 
	C587.981079,579.451111 586.186890,579.087830 584.394409,578.716431 
	C579.777710,577.760071 577.834290,575.030029 577.855408,570.221008 
	C577.973999,543.242676 577.848755,516.263245 577.979980,489.285095 
	C577.997681,485.647095 576.956055,483.000427 574.325256,480.515869 
	C568.879395,475.372681 563.571960,470.068939 558.445068,464.608185 
	C556.038330,462.044769 553.549316,461.215851 550.060730,461.542023 
	C531.278992,463.298035 516.421875,456.546143 506.742004,440.117645 
	C491.795624,414.750977 506.681274,383.772400 532.390076,376.391876 
	C559.963257,368.476044 589.136658,389.253326 587.842346,419.103241 
	C587.664001,423.216248 589.029236,425.929321 591.821899,428.672668 
	C603.563354,440.206604 615.020874,452.031372 626.846436,463.476715 
	C630.360413,466.877686 631.661377,470.464325 630.791077,475.069458 
	C628.168945,488.944702 625.553650,502.821259 622.909546,516.692322 
	C620.203064,530.890381 617.456787,545.080872 614.746338,559.278198 
	C613.748596,564.504150 612.997803,569.785767 611.782959,574.959412 
	C610.432495,580.710571 606.803528,582.737305 600.956055,581.619446 
	C597.530701,580.964661 594.073669,580.475586 590.202637,579.864990 
z"/>
<path fill="#E2E2E2" opacity="1.000000" stroke="none" 
	d="
M39.197540,524.283325 
	C46.072517,518.863892 53.491310,517.614929 61.839188,517.728455 
	C91.483788,518.131775 121.139359,518.079346 150.785767,517.749512 
	C158.097260,517.668152 164.399567,519.179810 170.424393,523.214355 
	C176.203247,527.084229 182.566513,530.111145 188.172134,534.195801 
	C190.512711,535.901367 192.854797,539.328369 192.970749,542.066956 
	C193.491776,554.371704 193.143311,566.710999 193.273209,579.036133 
	C193.304749,582.028320 191.909637,582.782410 189.329254,582.746826 
	C185.332306,582.691711 181.333969,582.743225 177.336212,582.743103 
	C126.198158,582.741211 75.059875,582.671326 23.922407,582.843262 
	C19.030914,582.859680 17.725548,581.439392 17.871935,576.663269 
	C18.218779,565.346924 18.065073,554.011841 17.945219,542.686157 
	C17.902012,538.603333 19.316307,535.790771 23.007139,533.801819 
	C28.407618,530.891602 33.612682,527.618774 39.197540,524.283325 
z"/>
<path fill="#DFDFDF" opacity="1.000000" stroke="none" 
	d="
M505.670258,457.342133 
	C511.095154,461.150482 516.181580,464.841583 521.488831,468.181702 
	C523.745361,469.601898 524.342285,470.790131 522.518372,472.819672 
	C522.297729,473.065125 522.033203,473.279907 521.761597,473.469574 
	C512.006409,480.281067 510.039093,489.681244 510.482666,501.172729 
	C511.336517,523.292969 510.745453,545.469666 510.714508,567.622986 
	C510.702118,576.502991 509.000580,578.409241 500.355103,579.700867 
	C496.081329,580.339355 491.814636,581.028015 487.552185,581.738525 
	C481.897400,582.681091 478.667175,580.629578 477.531464,574.870789 
	C473.672760,555.304382 469.957214,535.709778 466.139740,516.135193 
	C463.531891,502.762878 460.637421,489.441376 458.349396,476.015625 
	C457.820007,472.909393 458.079498,468.384979 459.962585,466.366364 
	C469.817047,455.802612 480.311066,445.835449 490.509216,435.733673 
	C495.493408,442.869476 500.457275,449.976166 505.670258,457.342133 
z"/>
<path fill="#757575" opacity="1.000000" stroke="none" 
	d="
M551.876465,363.793610 
	C558.715637,362.431946 564.540955,365.788300 570.497742,368.610321 
	C571.986572,369.315552 573.376099,370.230347 575.734497,371.575409 
	C575.851562,368.954468 576.019897,366.938324 576.020264,364.922150 
	C576.034546,289.938324 576.073303,214.954422 575.945129,139.970810 
	C575.936462,134.913879 577.476868,131.516937 581.143799,127.875099 
	C595.285034,113.830757 601.054932,97.041801 596.698059,77.021080 
	C593.041870,60.220280 583.265320,48.499012 568.259827,39.949924 
	C567.981812,39.338249 567.993774,39.162300 568.005676,38.986351 
	C572.100037,41.348907 576.682434,43.141907 580.210876,46.165016 
	C606.090637,68.338638 606.846802,106.613831 581.836853,129.772171 
	C578.941956,132.452728 578.450073,135.102875 578.451416,138.519485 
	C578.481262,214.302094 578.473938,290.084717 578.470947,365.867340 
	C578.470642,374.867706 578.561829,374.583740 570.686340,370.945526 
	C564.698364,368.179291 558.281616,366.341003 551.876465,363.793610 
z"/>
<path fill="#999999" opacity="1.000000" stroke="none" 
	d="
M549.884705,34.154465 
	C537.401917,33.349991 526.462646,38.122040 515.716614,43.601780 
	C514.701050,44.119617 513.650085,44.568012 512.243408,44.977203 
	C517.517517,41.795055 522.865540,37.748188 528.891296,35.828381 
	C535.336487,33.774906 542.420654,33.726654 549.595398,33.197189 
	C549.938171,33.778973 549.911438,33.966717 549.884705,34.154465 
z"/>
<path fill="#757575" opacity="1.000000" stroke="none" 
	d="
M516.389160,371.101685 
	C521.533569,368.419678 526.838684,364.960785 532.646851,363.495239 
	C537.954773,362.155975 543.806885,362.973785 549.711182,363.121155 
	C544.651917,363.985107 539.174500,364.044128 533.982666,365.291565 
	C528.111145,366.702301 522.495911,369.179932 516.389160,371.101685 
z"/>
<path fill="#999999" opacity="1.000000" stroke="none" 
	d="
M491.143890,82.980858 
	C491.265656,86.436394 491.387421,89.891930 490.942993,93.668076 
	C490.142700,93.988571 489.908630,93.988449 489.674500,93.988319 
	C489.620972,90.585159 489.567444,87.181992 489.973755,83.393974 
	C490.670349,82.999695 490.907104,82.990280 491.143890,82.980858 
z"/>
<path fill="#757575" opacity="1.000000" stroke="none" 
	d="
M491.210327,82.567604 
	C490.907104,82.990280 490.670349,82.999695 490.077942,83.009705 
	C490.158386,80.351982 490.594482,77.693680 491.340607,74.894913 
	C491.526031,77.221085 491.401398,79.687714 491.210327,82.567604 
z"/>
<path fill="#757575" opacity="1.000000" stroke="none" 
	d="
M489.496460,94.287323 
	C489.908630,93.988449 490.142700,93.988571 490.727966,93.999374 
	C491.369812,96.511223 491.660522,99.012390 491.768188,101.892120 
	C490.829590,99.709236 490.073975,97.147789 489.496460,94.287323 
z"/>
<path fill="#757575" opacity="1.000000" stroke="none" 
	d="
M492.012573,105.132980 
	C493.295410,107.048241 494.294250,109.096725 495.210388,111.504745 
	C493.994629,109.664917 492.861572,107.465553 492.012573,105.132980 
z"/>
<path fill="#757575" opacity="1.000000" stroke="none" 
	d="
M561.970154,36.663895 
	C561.579163,37.097164 561.143921,37.210846 560.176514,36.983597 
	C559.020081,36.491714 558.395752,36.340763 557.771423,36.189812 
	C557.450073,36.122574 557.183105,35.963902 556.980408,35.477520 
	C558.635498,35.608936 560.280640,35.976627 561.970154,36.663895 
z"/>
<path fill="#757575" opacity="1.000000" stroke="none" 
	d="
M550.207886,34.352448 
	C549.911438,33.966717 549.938171,33.778973 549.978088,33.307076 
	C551.302246,33.411846 552.613220,33.800774 554.020630,34.522331 
	C552.921753,34.753448 551.726379,34.651939 550.207886,34.352448 
z"/>
<path fill="#999999" opacity="1.000000" stroke="none" 
	d="
M567.713745,38.801311 
	C567.993774,39.162300 567.981812,39.338249 567.970581,39.778763 
	C566.722778,39.491081 565.474243,38.938828 564.244385,38.022766 
	C565.315857,37.978058 566.368835,38.297165 567.713745,38.801311 
z"/>
<path fill="#757575" opacity="1.000000" stroke="none" 
	d="
M515.227844,372.121521 
	C514.152588,372.291290 513.077393,372.461060 512.386963,372.337006 
	C513.590454,372.069305 514.409119,372.095398 515.227844,372.121521 
z"/>
<path fill="#999999" opacity="1.000000" stroke="none" 
	d="
M492.619873,71.476868 
	C492.852936,72.207001 492.765442,73.023743 492.314453,73.906174 
	C492.067078,73.169067 492.183228,72.366280 492.619873,71.476868 
z"/>
<path fill="#757575" opacity="1.000000" stroke="none" 
	d="
M499.383911,119.990234 
	C500.073944,120.209412 500.654327,120.747620 501.153931,121.605530 
	C500.473511,121.386581 499.873871,120.847931 499.383911,119.990234 
z"/>
<path fill="#999999" opacity="1.000000" stroke="none" 
	d="
M495.317535,64.977623 
	C495.462036,65.583336 495.299011,66.209045 494.842834,66.721588 
	C494.703125,66.071487 494.856567,65.534554 495.317535,64.977623 
z"/>
<path fill="#757575" opacity="1.000000" stroke="none" 
	d="
M507.019836,48.436749 
	C506.918488,49.158234 506.487396,49.777866 505.751526,50.359966 
	C505.861206,49.659924 506.275665,48.997406 507.019836,48.436749 
z"/>
<path fill="#999999" opacity="1.000000" stroke="none" 
	d="
M515.375488,371.934875 
	C514.409119,372.095398 513.590454,372.069305 512.362427,372.031433 
	C511.873291,371.546478 511.793396,371.073334 511.898468,370.285065 
	C512.951599,370.319611 513.819702,370.669281 515.017700,371.162354 
	C515.347595,371.305786 515.523193,371.748230 515.375488,371.934875 
z"/>
<path fill="#999999" opacity="1.000000" stroke="none" 
	d="
M557.863770,36.431770 
	C558.395752,36.340763 559.020081,36.491714 559.834473,36.916267 
	C559.335083,37.017818 558.645569,36.845772 557.863770,36.431770 
z"/>
</svg>