<svg xmlns="http://www.w3.org/2000/svg" width="178.53" height="103.93" viewBox="0 0 178.53 103.93">
  <defs>
    <style>
      .svg-arrow { fill: #fff; }
      .svg-tip { fill: #e6e6e6; }
    </style>
  </defs>
  <g>
    <path class="svg-arrow" d="M20.6,54.2c-2-1.4-2.9-1.2-2.9-1.2s-.9-.2-2.9,1.2S1.2,69.2.8,69.9s-2.2,28.5,1.3,31.4,15.6,2.6,15.6,2.6,12.1.3,15.6-2.6S35,70.6,34.6,69.9,22.6,55.6,20.6,54.2Z" transform="translate(0.02 0.02)"/>
    <path class="svg-tip" d="M20.6,54.2c-2-1.4-2.9-1.2-2.9-1.2s-.9-.2-2.9,1.2c-1.3.9-6.6,6.9-10.3,11.2a27.84,27.84,0,0,0,13.2,3.4,26.73,26.73,0,0,0,13.2-3.4C27.2,61.1,21.9,55.1,20.6,54.2Z" transform="translate(0.02 0.02)"/>
  </g>
</svg>