<svg id="Layer_1" data-name="Layer 1" xmlns="http://www.w3.org/2000/svg" width="42.4" height="42.4" viewBox="0 0 42.4 42.4">
  <defs>
    <style>
      .cls-1 {
        fill: #fafafa;
      }

      .cls-2 {
        fill: #fff;
      }

      .cls-3 {
        fill: #0d0d0d;
      }
    </style>
  </defs>
  <g>
    <g>
      <circle class="cls-1" cx="21.2" cy="21.2" r="20.2"/>
      <path class="cls-2" d="M21.1,42.4A21.2,21.2,0,1,1,42.3,21.2,21.21,21.21,0,0,1,21.1,42.4ZM21.1,2A19.2,19.2,0,1,0,40.3,21.2,19.2,19.2,0,0,0,21.1,2Z" transform="translate(0.1)"/>
    </g>
    <g>
      <path class="cls-3" d="M22.2,27.8V15a1.33,1.33,0,0,1,.3-1,.57.57,0,0,1,.7-.2c.6.2.9.7.9,1.7v6.9a4.55,4.55,0,0,0,2.1.5,2.77,2.77,0,0,0,1.6-.5c1-.7,1.5-1.9,1.5-3.7a6.49,6.49,0,0,0-1.2-4.3A8.79,8.79,0,0,0,24,11.8c-1.3-.4-2.5-.8-3.6-1.1s-2-.5-2.9-.7V22.2h0v2.7h0v1.7h0v2.5h0v1.5l4.7,1.5V28.5h0Z" transform="translate(0.1)"/>
      <path class="cls-3" d="M17.2,26.8l-1.7.6-.9.4-1.6.3-1.5-.2c-.3-.2-.4-.4-.2-.6s.2-.1.3-.2.3-.1.4-.2l1.1-.4L17.2,25V22.3l-1.7.5-5.5,2-1,.4c-1.5.6-2.2,1.2-2.2,1.8.1.8,1,1.5,2.7,1.9a15.21,15.21,0,0,0,4.3.5,20.2,20.2,0,0,0,3.3-.3V26.8Z" transform="translate(0.1)"/>
      <path class="cls-3" d="M33,24.5a12.88,12.88,0,0,0-2.5-.6,10.48,10.48,0,0,0-2.5-.1,26.6,26.6,0,0,0-2.8.3,15.25,15.25,0,0,0-2.6.8v2.8l3.9-1.4,1.6-.5,1.1-.3h1.4c.3.1.6.2.7.4s-.2.4-.8.6l-1.4.5-6.5,2.4v2.7l3.5-1.3,6.4-2.3.7-.4c1.5-.5,2.2-1.2,2.2-1.9S34.6,25,33,24.5Z" transform="translate(0.1)"/>
    </g>
  </g>
</svg>
