<svg xmlns="http://www.w3.org/2000/svg" width="178.53" height="103.93" viewBox="0 0 178.53 103.93">
  <defs>
    <style>
      .svg-arrow { fill: #fff; }
      .svg-tip { fill: #e6e6e6; }  
    </style>
  </defs>
  <g>
    <path class="svg-arrow" d="M175.9,55.1c-2.9-3.5-30.7-1.7-31.4-1.3s-14.3,12-15.7,14-1.2,2.9-1.2,2.9-.2.9,1.2,2.9,15,13.6,15.7,14,28.5,2.2,31.4-1.3,2.6-15.6,2.6-15.6S178.8,58.6,175.9,55.1Z" transform="translate(0.02 0.02)"/>
    <path class="svg-tip" d="M140.1,57.6c-4.3,3.7-10.3,9-11.2,10.3-1.4,2-1.2,2.9-1.2,2.9s-.2.9,1.2,2.9c.9,1.3,6.9,6.6,11.2,10.3a27.32,27.32,0,0,0,0-26.4Z" transform="translate(0.02 0.02)"/>
  </g>
</svg>