<svg xmlns="http://www.w3.org/2000/svg" width="178.53" height="103.93" viewBox="0 0 178.53 103.93">
  <defs>
    <style>
      .svg-arrow { fill: #fff; }
      .svg-tip { fill: #e6e6e6; }  
    </style>
  </defs>
  <g>
    <path class="svg-arrow" d="M52.2,102.7c2,1.4,2.9,1.2,2.9,1.2s.9.2,2.9-1.2S71.6,87.7,72,87s2.2-28.5-1.3-31.4S55.1,53,55.1,53,43,52.8,39.5,55.6,37.8,86.3,38.2,87,50.2,101.3,52.2,102.7Z" transform="translate(0.02 0.02)"/>
    <path class="svg-tip" d="M52.2,102.7c2,1.4,2.9,1.2,2.9,1.2s.9.2,2.9-1.2c1.3-.9,6.6-6.9,10.3-11.2a27.84,27.84,0,0,0-13.2-3.4,26.73,26.73,0,0,0-13.2,3.4C45.6,95.8,50.9,101.8,52.2,102.7Z" transform="translate(0.02 0.02)"/>
  </g>
</svg>